<svg width="300.175" height="67.551" viewBox="-21.12 -39.998549856146774 348.1752014203824 115.55055002638053" xmlns="http://www.w3.org/2000/svg"><g id="svgGroup" stroke-linecap="round" fill-rule="evenodd" font-size="9pt" stroke="#000" stroke-width="0.0mm" fill="#000" style="stroke:currentColor; fill:currentColor;"><path d="M 34.272 44.136 L 34.272 38.52 L 34.2 27.504 L 34.2 25.704 L 34.2 24.516 Q 34.2 24.012 34.169 23.382 A 32.355 32.355 0 0 0 34.164 23.292 A 18.855 18.855 0 0 1 34.148 22.912 Q 34.134 22.48 34.13 21.886 A 78.594 78.594 0 0 1 34.128 21.312 A 4.308 4.308 0 0 1 34.13 21.184 Q 34.136 20.985 34.159 20.64 A 37.861 37.861 0 0 1 34.164 20.556 Q 34.195 20.095 34.094 18.297 A 138.518 138.518 0 0 0 34.056 17.64 Q 31.248 22.32 29.412 25.164 Q 27.576 28.008 26.316 29.556 A 16.675 16.675 0 0 1 25.633 30.347 Q 24.949 31.087 24.375 31.482 A 3.793 3.793 0 0 1 24.12 31.644 A 4.614 4.614 0 0 1 22.691 32.188 A 4.292 4.292 0 0 1 22.176 32.256 Q 21.6 32.328 21.024 32.04 A 6.206 6.206 0 0 1 20.044 31.426 A 6.971 6.971 0 0 1 19.908 31.32 Q 19.368 30.888 18.9 30.42 A 7.377 7.377 0 0 1 18.525 30.017 Q 18.34 29.803 18.196 29.596 A 4.294 4.294 0 0 1 18.144 29.52 Q 16.416 27.36 14.256 24.336 Q 12.4 21.737 10.437 18.181 A 94.203 94.203 0 0 1 9.792 16.992 A 6.508 6.508 0 0 1 9.791 17.045 Q 9.788 17.307 9.765 18.816 A 7748.044 7748.044 0 0 1 9.756 19.368 Q 9.72 21.645 9.72 25.011 A 633.59 633.59 0 0 0 9.72 25.092 Q 9.72 28.512 9.684 32.436 Q 9.648 36.36 9.612 39.744 A 421.588 421.588 0 0 1 9.592 41.366 Q 9.558 43.695 9.504 45.396 Q 9.432 47.664 9.36 47.664 Q 9.36 48.888 8.784 49.932 Q 8.208 50.976 7.236 51.624 Q 6.264 52.272 4.968 52.344 Q 3.783 52.41 2.418 51.754 A 8.379 8.379 0 0 1 2.16 51.624 A 3.501 3.501 0 0 1 0.82 50.109 A 4.299 4.299 0 0 1 0.756 49.968 Q 0.304 48.924 0.154 48.014 A 6.073 6.073 0 0 1 0.144 47.952 A 61.019 61.019 0 0 1 0.056 46.481 A 54.417 54.417 0 0 1 0.036 46.008 A 49.254 49.254 0 0 1 0.002 44.564 A 54.945 54.945 0 0 1 0 44.064 L 0.072 38.448 L 0.144 27.36 L 0.144 17.712 Q 0.144 11.448 0.576 5.4 A 6.173 6.173 0 0 1 0.646 4.452 A 5.224 5.224 0 0 1 0.756 3.924 Q 0.936 3.24 1.224 2.592 A 4.803 4.803 0 0 1 1.831 1.652 A 3.717 3.717 0 0 1 2.736 0.864 Q 3.816 0.216 5.04 0.216 A 12.872 12.872 0 0 1 5.88 0.243 A 11.569 11.569 0 0 1 6.012 0.252 A 10.4 10.4 0 0 1 6.802 0.342 A 9.377 9.377 0 0 1 6.912 0.36 A 3.747 3.747 0 0 1 8.74 1.316 A 5.305 5.305 0 0 1 9.396 2.052 A 35.329 35.329 0 0 0 10.289 3.205 Q 10.744 3.767 11.177 4.247 A 20.731 20.731 0 0 0 11.376 4.464 A 13.267 13.267 0 0 1 11.894 5.086 Q 12.236 5.522 12.6 6.048 Q 13.248 6.984 13.896 7.992 Q 14.544 9 15.12 9.936 A 218.261 218.261 0 0 1 15.596 10.714 Q 15.813 11.069 16.004 11.385 A 121.838 121.838 0 0 1 16.128 11.592 Q 18 14.616 19.476 17.136 A 69.36 69.36 0 0 0 20.733 19.203 Q 21.323 20.133 21.88 20.936 A 38.229 38.229 0 0 0 22.248 21.456 A 3.176 3.176 0 0 0 22.39 21.303 Q 22.549 21.122 22.739 20.861 A 9.905 9.905 0 0 0 22.752 20.844 Q 23.04 20.448 23.364 19.98 Q 23.688 19.512 23.94 19.08 Q 24.192 18.648 24.336 18.36 Q 25.056 17.208 25.776 16.092 Q 26.496 14.976 27.324 13.716 Q 28.152 12.456 29.052 10.944 A 130.726 130.726 0 0 1 29.902 9.538 Q 30.488 8.582 31.176 7.488 Q 31.68 6.624 32.472 5.4 Q 33.264 4.176 34.272 3.024 A 14.24 14.24 0 0 1 35.709 1.593 A 12.359 12.359 0 0 1 36.396 1.044 A 4.647 4.647 0 0 1 37.309 0.508 A 3.372 3.372 0 0 1 38.664 0.216 A 15.955 15.955 0 0 1 39.076 0.221 Q 39.402 0.23 39.672 0.252 Q 40.104 0.288 40.536 0.36 A 2.479 2.479 0 0 1 41.575 0.696 A 3.57 3.57 0 0 1 42.192 1.152 A 4.501 4.501 0 0 1 42.746 1.818 A 3.656 3.656 0 0 1 43.056 2.376 A 12.994 12.994 0 0 1 43.235 3.012 Q 43.311 3.312 43.359 3.574 A 5.649 5.649 0 0 1 43.416 3.96 Q 43.488 4.464 43.524 4.896 Q 43.56 5.328 43.56 5.76 Q 43.56 9.792 43.632 13.752 Q 43.704 17.712 43.704 21.744 A 1444.716 1444.716 0 0 0 43.736 31.177 A 1575.383 1575.383 0 0 0 43.74 31.824 A 1460.287 1460.287 0 0 1 43.776 41.291 A 1341.218 1341.218 0 0 1 43.776 41.904 Q 43.776 42.912 43.848 44.064 Q 43.92 45.216 43.848 46.368 Q 43.776 47.232 43.632 48.168 A 6.785 6.785 0 0 1 43.297 49.485 A 6.031 6.031 0 0 1 43.128 49.896 A 3.98 3.98 0 0 1 42.828 50.483 Q 42.552 50.922 42.192 51.192 Q 41.4 51.912 40.32 51.984 Q 39.6 52.241 38.917 52.241 A 3.551 3.551 0 0 1 38.376 52.2 A 6.785 6.785 0 0 1 37.059 51.865 A 6.031 6.031 0 0 1 36.648 51.696 Q 35.64 51.048 35.172 50.148 Q 34.704 49.248 34.488 48.24 Q 34.272 47.232 34.272 46.152 L 34.272 44.136 Z M 84.168 43.344 L 84.6 43.56 L 85.032 43.704 A 6.444 6.444 0 0 1 85.913 44.317 A 5.2 5.2 0 0 1 86.472 44.856 Q 87.48 46.296 87.048 48.096 A 2.338 2.338 0 0 1 86.864 48.738 A 2.106 2.106 0 0 1 86.724 48.996 A 4.393 4.393 0 0 1 86.429 49.407 A 3.55 3.55 0 0 1 86.184 49.68 Q 85.608 50.256 84.816 50.472 Q 84.024 50.904 83.16 50.976 A 8.556 8.556 0 0 1 82.724 51.052 A 7.155 7.155 0 0 1 82.476 51.084 A 5.959 5.959 0 0 1 81.981 51.117 A 6.919 6.919 0 0 1 81.792 51.12 L 55.656 51.12 L 54.792 51.12 Q 54.36 51.12 53.928 51.048 A 1.547 1.547 0 0 0 53.746 50.999 Q 53.633 50.976 53.532 50.976 A 0.775 0.775 0 0 1 53.341 50.953 A 0.657 0.657 0 0 1 53.208 50.904 Q 52.92 50.832 52.668 50.796 A 8.064 8.064 0 0 1 52.464 50.764 Q 52.372 50.748 52.27 50.729 A 16.458 16.458 0 0 1 52.056 50.688 Q 51.282 50.266 50.851 49.912 A 3.673 3.673 0 0 1 50.832 49.896 Q 50.308 49.503 50.075 49.083 A 1.432 1.432 0 0 1 49.896 48.528 L 49.896 48.456 A 3.447 3.447 0 0 1 49.797 48.175 Q 49.754 48.034 49.731 47.906 A 1.846 1.846 0 0 1 49.716 47.808 A 1.548 1.548 0 0 1 49.706 47.682 Q 49.696 47.46 49.739 47.168 A 4.397 4.397 0 0 1 49.752 47.088 A 0.23 0.23 0 0 0 49.749 47.047 Q 49.745 47.025 49.736 47.008 A 0.107 0.107 0 0 0 49.716 46.98 A 0.08 0.08 0 0 1 49.7 46.954 Q 49.682 46.911 49.68 46.82 A 1.061 1.061 0 0 1 49.68 46.8 Q 49.68 46.368 49.824 45.972 A 31.55 31.55 0 0 0 50.04 45.358 A 35.414 35.414 0 0 0 50.112 45.144 A 2.899 2.899 0 0 0 50.361 44.684 A 3.171 3.171 0 0 0 50.364 44.676 Q 50.472 44.424 50.688 44.208 A 3.361 3.361 0 0 1 50.93 43.724 A 4.077 4.077 0 0 1 51.084 43.488 A 3.841 3.841 0 0 0 51.357 43.038 A 3.188 3.188 0 0 0 51.48 42.768 Q 51.624 42.48 51.804 42.156 Q 51.928 41.933 52.034 41.762 A 5.45 5.45 0 0 1 52.128 41.616 Q 52.416 41.328 52.596 41.076 Q 52.776 40.824 52.92 40.536 L 56.664 35.28 L 63.36 25.56 Q 64.944 23.472 66.492 21.204 A 1337.223 1337.223 0 0 0 68.875 17.701 A 1491.552 1491.552 0 0 0 69.696 16.488 Q 70.92 14.616 71.928 13.212 Q 72.936 11.808 74.088 10.152 L 69.372 10.152 Q 67.176 10.152 65.016 10.116 Q 62.856 10.08 60.516 10.044 Q 58.176 10.008 55.368 9.936 A 15.658 15.658 0 0 1 54.566 9.857 Q 53.861 9.77 53.028 9.612 A 5.007 5.007 0 0 1 51.865 9.249 A 3.966 3.966 0 0 1 50.832 8.568 A 3.804 3.804 0 0 1 50.355 8.053 Q 49.989 7.57 49.896 7.056 Q 49.712 6.444 49.685 5.623 A 8.822 8.822 0 0 1 49.68 5.328 A 3.449 3.449 0 0 1 49.897 4.092 A 3.177 3.177 0 0 1 50.328 3.312 Q 51.048 2.376 52.128 1.944 A 8.907 8.907 0 0 1 53.898 1.463 A 7.505 7.505 0 0 1 55.08 1.368 Q 55.872 1.296 56.664 1.296 A 7.861 7.861 0 0 0 57.903 1.201 A 7.06 7.06 0 0 0 58.176 1.152 L 58.536 1.152 Q 60.624 1.08 64.764 1.116 A 757.751 757.751 0 0 0 66.967 1.132 Q 70.237 1.151 74.549 1.152 A 2127.38 2127.38 0 0 0 75.168 1.152 A 38.542 38.542 0 0 0 76.396 1.132 A 43.931 43.931 0 0 0 76.824 1.116 Q 77.683 1.08 78.472 1.151 A 11.562 11.562 0 0 1 78.48 1.152 Q 80.136 1.296 81.972 1.224 Q 83.808 1.152 85.32 2.016 Q 85.752 2.232 86.112 2.52 Q 86.472 2.808 86.904 3.024 Q 87.768 3.816 87.732 4.896 A 6.041 6.041 0 0 1 87.499 6.345 A 7.56 7.56 0 0 1 87.228 7.128 Q 86.76 8.28 86.04 9.36 Q 85.324 10.434 84.822 11.151 A 48.557 48.557 0 0 1 84.816 11.16 Q 83.808 12.672 82.728 14.112 Q 81.648 15.552 80.64 16.992 Q 76.104 23.472 71.604 29.88 Q 67.104 36.288 62.64 42.84 L 64.296 42.84 L 65.268 42.84 L 66.168 42.84 A 20.031 20.031 0 0 1 66.452 42.842 Q 66.776 42.847 67.235 42.861 A 94.254 94.254 0 0 1 67.68 42.876 A 42.182 42.182 0 0 0 68.231 42.892 Q 68.848 42.906 69.667 42.91 A 148.005 148.005 0 0 0 70.452 42.912 L 75.168 42.912 L 78.876 42.912 Q 80.712 42.912 82.584 43.056 Q 82.944 43.128 83.376 43.164 A 2.907 2.907 0 0 1 83.9 43.254 A 2.471 2.471 0 0 1 84.168 43.344 Z M 137.304 47.736 L 127.728 33.912 L 118.224 47.736 L 118.044 47.916 Q 117.936 48.024 117.72 48.312 A 2.456 2.456 0 0 1 117.524 48.636 A 3.194 3.194 0 0 1 117.324 48.888 Q 117.072 49.176 116.784 49.536 Q 116.424 49.824 115.992 50.148 A 7.417 7.417 0 0 0 115.245 50.787 A 6.825 6.825 0 0 0 115.2 50.832 A 3.471 3.471 0 0 1 114.387 51.236 A 3.244 3.244 0 0 1 114.3 51.264 A 41.803 41.803 0 0 0 113.618 51.48 A 37.46 37.46 0 0 0 113.4 51.552 Q 112.674 51.719 111.862 51.541 A 4.722 4.722 0 0 1 111.384 51.408 A 5.86 5.86 0 0 1 110.039 50.939 A 3.874 3.874 0 0 1 108.288 49.248 A 3.444 3.444 0 0 1 107.918 47.688 A 3.729 3.729 0 0 1 107.928 47.412 A 6.502 6.502 0 0 1 108.216 45.942 A 7.722 7.722 0 0 1 108.396 45.432 Q 108.792 44.424 109.332 43.488 Q 109.872 42.552 110.448 41.688 Q 110.736 41.328 110.988 41.04 Q 111.24 40.752 111.528 40.392 Q 112.464 39.168 113.328 37.908 Q 114.192 36.648 115.2 35.208 L 121.896 25.488 L 112.032 11.232 L 111.168 10.008 Q 110.88 9.576 110.592 9.216 A 5.628 5.628 0 0 1 110.313 8.833 Q 110.165 8.612 110.016 8.352 Q 109.728 7.992 109.44 7.56 A 4.417 4.417 0 0 1 109.139 7.028 A 5.712 5.712 0 0 1 108.936 6.552 A 26.091 26.091 0 0 1 108.656 5.975 A 22.276 22.276 0 0 1 108.54 5.724 Q 108.393 5.401 108.271 4.96 A 8.293 8.293 0 0 1 108.216 4.752 A 5.648 5.648 0 0 1 108.09 4.086 Q 108.029 3.601 108.072 3.168 Q 108.288 2.232 109.008 1.584 Q 109.296 1.224 109.692 1.008 A 21.799 21.799 0 0 0 110.266 0.684 A 19.562 19.562 0 0 0 110.448 0.576 A 12.744 12.744 0 0 1 111.05 0.352 Q 111.328 0.257 111.579 0.187 A 7.156 7.156 0 0 1 111.744 0.144 Q 112.32 0 112.968 0 A 4.295 4.295 0 0 1 114.997 0.651 A 5.4 5.4 0 0 1 115.416 0.936 Q 116.856 1.872 118.008 3.24 A 27.344 27.344 0 0 0 118.733 4.323 A 23.526 23.526 0 0 0 119.016 4.716 A 43.308 43.308 0 0 0 119.813 5.762 A 48.925 48.925 0 0 0 120.096 6.12 L 120.168 6.408 A 106.604 106.604 0 0 1 122.291 9.308 A 89.08 89.08 0 0 1 123.444 10.98 Q 124.92 13.176 126.72 15.624 A 6.793 6.793 0 0 1 127.108 16.158 A 5.91 5.91 0 0 1 127.224 16.344 Q 127.44 16.704 127.728 17.064 A 6.793 6.793 0 0 0 128.116 16.53 A 5.91 5.91 0 0 0 128.232 16.344 Q 128.448 15.984 128.736 15.624 Q 130.392 13.176 131.94 10.98 A 368.642 368.642 0 0 1 134.363 7.585 A 421.05 421.05 0 0 1 135.216 6.408 L 135.36 6.12 Q 135.936 5.4 136.476 4.716 A 17.507 17.507 0 0 0 137.362 3.485 A 19.595 19.595 0 0 0 137.52 3.24 Q 138.672 1.872 140.112 0.936 Q 141.192 0.072 142.56 0 A 5.26 5.26 0 0 1 143.882 0.177 A 7.274 7.274 0 0 1 145.008 0.576 A 7.549 7.549 0 0 1 145.551 0.923 Q 145.808 1.103 146.009 1.284 A 3.25 3.25 0 0 1 146.304 1.584 A 3.114 3.114 0 0 1 146.949 2.224 A 2.536 2.536 0 0 1 147.384 3.168 Q 147.456 3.888 147.24 4.752 Q 147.123 5.221 146.982 5.571 A 3.878 3.878 0 0 1 146.916 5.724 A 3.034 3.034 0 0 1 146.708 6.103 Q 146.594 6.281 146.446 6.466 A 5.285 5.285 0 0 1 146.376 6.552 A 11.38 11.38 0 0 1 145.999 7.399 Q 145.731 7.936 145.44 8.352 Q 145.171 8.823 144.902 9.168 A 4.84 4.84 0 0 1 144.864 9.216 Q 144.576 9.576 144.36 10.008 L 143.496 11.232 L 133.56 25.488 L 140.256 35.208 L 144.144 40.68 Q 144.792 41.76 145.44 42.768 A 41.167 41.167 0 0 1 146.392 44.326 A 47.644 47.644 0 0 1 146.736 44.928 A 7.16 7.16 0 0 1 147.126 45.748 Q 147.496 46.687 147.42 47.448 A 27.297 27.297 0 0 1 147.336 48.193 Q 147.259 48.792 147.168 49.248 A 2.111 2.111 0 0 1 146.592 50.208 A 3.014 3.014 0 0 1 146.124 50.58 A 6.684 6.684 0 0 1 144.382 51.38 A 7.483 7.483 0 0 1 144.288 51.408 A 6.994 6.994 0 0 1 143.658 51.554 Q 142.939 51.683 142.38 51.601 A 2.564 2.564 0 0 1 142.128 51.552 Q 141.095 51.345 140.392 50.876 A 3.528 3.528 0 0 1 140.328 50.832 Q 139.896 50.472 139.536 50.148 Q 139.176 49.824 138.816 49.536 L 138.168 48.888 A 2.767 2.767 0 0 1 137.944 48.636 Q 137.833 48.494 137.757 48.353 A 1.645 1.645 0 0 1 137.736 48.312 A 3.465 3.465 0 0 0 137.666 48.179 Q 137.565 47.997 137.484 47.916 L 137.304 47.736 Z M 213.912 46.152 L 205.92 30.96 Q 205.344 30.96 204.768 30.996 Q 204.192 31.032 203.616 31.104 Q 202.104 31.248 200.772 31.176 Q 199.44 31.104 198 31.176 L 196.632 31.176 L 196.632 44.208 A 16.361 16.361 0 0 1 196.618 44.9 A 13.43 13.43 0 0 1 196.596 45.288 A 14.119 14.119 0 0 0 196.565 45.946 A 17.168 17.168 0 0 0 196.56 46.368 Q 196.56 46.69 196.531 47.185 A 27.932 27.932 0 0 1 196.524 47.304 A 14.694 14.694 0 0 1 196.465 47.996 A 12.165 12.165 0 0 1 196.416 48.384 A 4.227 4.227 0 0 1 196.14 49.286 A 5.637 5.637 0 0 1 195.768 50.004 A 4.432 4.432 0 0 1 194.559 51.298 A 5.158 5.158 0 0 1 194.4 51.408 A 4.3 4.3 0 0 1 192.438 52.033 Q 191.846 52.079 191.189 51.99 A 7.481 7.481 0 0 1 190.728 51.912 Q 189.792 51.696 188.928 51.192 Q 188.64 50.976 188.424 50.652 Q 188.208 50.328 188.064 49.968 A 6.939 6.939 0 0 1 187.826 49.261 A 7.591 7.591 0 0 1 187.812 49.212 A 7.014 7.014 0 0 0 187.578 48.501 A 6.467 6.467 0 0 0 187.56 48.456 A 5.267 5.267 0 0 1 187.385 47.669 A 4.214 4.214 0 0 1 187.344 47.088 L 187.344 6.192 A 11.386 11.386 0 0 1 187.364 5.524 A 12.895 12.895 0 0 1 187.38 5.292 A 8.583 8.583 0 0 1 187.418 4.903 Q 187.442 4.711 187.473 4.541 A 4.979 4.979 0 0 1 187.488 4.464 Q 187.56 3.672 187.992 2.88 Q 188.138 2.295 188.417 1.941 A 1.443 1.443 0 0 1 188.712 1.656 A 2.333 2.333 0 0 1 189.092 1.353 Q 189.295 1.221 189.551 1.102 A 5.807 5.807 0 0 1 190.044 0.9 A 3.717 3.717 0 0 1 190.616 0.749 Q 191.43 0.596 192.672 0.648 Q 195.912 0.72 199.08 0.72 Q 202.248 0.72 205.416 0.864 A 60.672 60.672 0 0 1 208.124 1.114 A 72.697 72.697 0 0 1 209.844 1.332 A 19.629 19.629 0 0 1 213.172 2.081 A 17.35 17.35 0 0 1 214.2 2.448 Q 215.496 2.952 216.576 3.456 A 18.304 18.304 0 0 1 217.485 4.016 Q 218.229 4.507 218.736 4.968 Q 221.256 7.272 222.552 10.512 A 17.527 17.527 0 0 1 223.848 16.961 A 16.92 16.92 0 0 1 223.848 17.064 Q 223.848 20.952 222.012 24.192 A 10.392 10.392 0 0 1 218.145 28.05 A 14.106 14.106 0 0 1 216.144 29.016 Q 216.004 29.156 215.761 29.194 A 1.047 1.047 0 0 1 215.748 29.196 A 2.099 2.099 0 0 0 215.601 29.222 Q 215.451 29.255 215.352 29.304 L 221.976 42.624 L 222.624 43.776 A 7.791 7.791 0 0 0 222.764 44.042 Q 222.863 44.222 222.984 44.424 A 5.16 5.16 0 0 1 223.283 44.998 A 4.595 4.595 0 0 1 223.344 45.144 A 5.788 5.788 0 0 1 223.624 45.673 A 6.823 6.823 0 0 1 223.74 45.936 A 6.411 6.411 0 0 0 224.005 46.496 A 5.451 5.451 0 0 0 224.136 46.728 Q 224.329 47.63 224.465 48.243 A 122.745 122.745 0 0 0 224.496 48.384 Q 224.568 49.104 224.352 49.752 Q 224.208 50.184 223.956 50.472 A 3.72 3.72 0 0 1 223.952 50.477 Q 223.815 50.633 223.646 50.789 A 5.564 5.564 0 0 1 223.344 51.048 Q 222.75 51.444 221.913 51.78 A 11.441 11.441 0 0 1 221.76 51.84 Q 221.184 51.984 220.644 52.092 A 2.388 2.388 0 0 1 220.175 52.138 Q 219.897 52.138 219.61 52.075 A 2.94 2.94 0 0 1 219.528 52.056 Q 218.376 51.984 217.512 51.192 A 10.109 10.109 0 0 1 215.947 49.595 A 9.015 9.015 0 0 1 215.496 48.96 Q 215.136 48.384 214.704 47.664 Q 214.272 46.944 213.912 46.152 Z M 297.72 28.728 L 297.576 29.088 Q 296.568 31.32 295.632 33.408 Q 294.696 35.496 293.544 37.872 A 253.591 253.591 0 0 0 291.479 42.097 A 232.313 232.313 0 0 0 291.348 42.372 Q 290.304 44.568 289.296 46.656 A 15.403 15.403 0 0 0 288.919 47.465 A 13.213 13.213 0 0 0 288.792 47.772 A 6.439 6.439 0 0 1 288.485 48.426 A 8.137 8.137 0 0 1 288.216 48.888 L 284.76 56.304 A 125.54 125.54 0 0 0 283.022 59.92 A 115.418 115.418 0 0 0 282.996 59.976 Q 282.168 61.776 281.16 63.576 Q 280.944 63.936 280.764 64.26 Q 280.584 64.584 280.44 64.944 A 5.578 5.578 0 0 1 279.831 65.786 Q 279.458 66.216 278.964 66.636 A 4.189 4.189 0 0 1 278.125 67.2 A 3.159 3.159 0 0 1 276.912 67.536 Q 274.968 67.68 273.528 66.384 A 3.579 3.579 0 0 1 272.208 65.031 A 4.274 4.274 0 0 1 272.16 64.944 Q 271.872 64.296 271.872 63.288 A 11.669 11.669 0 0 0 271.958 62.673 A 10.089 10.089 0 0 0 271.98 62.46 A 7.379 7.379 0 0 1 272.054 61.886 A 6.551 6.551 0 0 1 272.088 61.704 A 4.115 4.115 0 0 0 272.299 61.007 A 3.82 3.82 0 0 0 272.304 60.984 A 2.248 2.248 0 0 1 272.367 60.739 Q 272.405 60.618 272.455 60.52 A 1.082 1.082 0 0 1 272.52 60.408 Q 272.736 59.832 272.88 59.832 L 278.136 48.456 Q 277.776 47.664 277.416 46.836 Q 277.08 46.063 276.807 45.447 A 141.297 141.297 0 0 0 276.768 45.36 Q 275.832 43.128 274.788 40.644 Q 273.744 38.16 272.664 35.676 Q 271.584 33.192 270.432 30.816 Q 269.28 28.44 268.128 26.28 Q 267.696 25.56 267.336 24.732 A 11.323 11.323 0 0 1 266.763 23.089 A 10.503 10.503 0 0 1 266.76 23.076 Q 266.544 22.248 266.616 21.384 A 3.3 3.3 0 0 1 266.9 20.311 A 4.443 4.443 0 0 1 267.264 19.656 A 4.122 4.122 0 0 1 267.837 18.828 A 3.168 3.168 0 0 1 268.776 18.108 Q 269.712 17.64 270.756 17.676 Q 271.8 17.712 272.736 18.144 A 4.44 4.44 0 0 1 273.675 18.721 A 3.765 3.765 0 0 1 274.248 19.296 Q 275.472 20.592 276.192 22.176 Q 276.912 23.76 277.56 25.416 Q 278.928 28.296 280.368 31.464 Q 281.808 34.632 283.248 37.656 L 286.992 29.736 A 46.63 46.63 0 0 0 287.795 28.049 A 40.708 40.708 0 0 0 288.036 27.504 Q 288.504 26.424 289.008 25.416 Q 289.584 24.192 290.124 22.896 A 14.261 14.261 0 0 1 291.099 20.968 A 12.745 12.745 0 0 1 291.384 20.52 A 5.538 5.538 0 0 1 291.526 20.254 Q 291.598 20.128 291.67 20.019 A 3.486 3.486 0 0 1 291.672 20.016 Q 291.815 19.802 291.958 19.516 A 6.417 6.417 0 0 0 291.96 19.512 A 19.239 19.239 0 0 1 292.388 18.961 Q 292.585 18.718 292.766 18.514 A 8.43 8.43 0 0 1 293.112 18.144 A 22.21 22.21 0 0 1 293.285 18.007 Q 293.527 17.817 293.712 17.685 A 7.761 7.761 0 0 1 293.724 17.676 A 1.422 1.422 0 0 1 294.076 17.495 A 1.867 1.867 0 0 1 294.336 17.424 A 5.189 5.189 0 0 1 294.997 17.279 A 4.407 4.407 0 0 1 295.308 17.244 Q 295.776 17.208 296.208 17.28 Q 296.928 17.496 297.936 17.928 A 3.167 3.167 0 0 1 299.574 19.406 A 3.978 3.978 0 0 1 299.592 19.44 A 3.591 3.591 0 0 1 300.129 20.804 Q 300.193 21.193 300.168 21.6 A 8.025 8.025 0 0 1 300.05 23.012 A 5.848 5.848 0 0 1 299.592 24.48 Q 299.448 24.84 299.196 25.416 A 30.614 30.614 0 0 0 298.834 26.281 A 35.561 35.561 0 0 0 298.692 26.64 A 14.751 14.751 0 0 1 298.259 27.645 A 13.155 13.155 0 0 1 298.152 27.864 L 297.72 28.728 Z M 236.448 21.24 Q 238.608 20.16 240.984 19.692 Q 243.36 19.224 245.7 19.476 Q 248.04 19.728 250.2 20.7 A 13.844 13.844 0 0 1 253.46 22.775 A 16.246 16.246 0 0 1 254.232 23.472 Q 256.104 25.344 257.112 27.576 A 18.257 18.257 0 0 1 258.223 30.873 A 22.14 22.14 0 0 1 258.552 32.544 A 15.954 15.954 0 0 0 259.118 34.982 A 13.762 13.762 0 0 0 259.488 36 Q 260.136 37.584 260.892 39.168 Q 261.648 40.752 262.332 42.336 Q 263.016 43.92 263.448 45.648 A 5.692 5.692 0 0 1 263.581 46.86 A 5.375 5.375 0 0 1 263.196 48.852 A 2.916 2.916 0 0 1 261.37 50.583 A 4.478 4.478 0 0 1 260.712 50.76 A 3.832 3.832 0 0 1 260.009 50.836 Q 259.986 50.836 259.963 50.836 A 3.422 3.422 0 0 1 258.66 50.58 Q 257.688 50.184 256.896 49.428 Q 256.104 48.672 255.492 47.772 Q 254.88 46.872 254.376 46.08 A 15.427 15.427 0 0 1 252.652 47.994 A 11.752 11.752 0 0 1 250.776 49.428 Q 248.832 50.616 246.096 50.976 Q 243.792 51.264 241.704 51.12 A 20.724 20.724 0 0 1 239.264 50.799 A 26.496 26.496 0 0 1 237.24 50.328 Q 234.144 49.536 232.164 47.556 Q 230.184 45.576 229.14 42.948 A 16.06 16.06 0 0 1 228.046 37.86 A 18.337 18.337 0 0 1 228.024 37.296 A 21.152 21.152 0 0 1 228.018 36.793 A 21.032 21.032 0 0 1 228.744 31.32 Q 229.752 27.432 231.768 24.984 Q 233.784 22.536 236.448 21.24 Z M 162.216 17.928 L 176.112 17.928 Q 177.336 17.64 178.596 18.072 A 6.291 6.291 0 0 1 180.455 19.099 A 7.59 7.59 0 0 1 180.936 19.512 A 3.165 3.165 0 0 1 181.651 20.625 A 3.696 3.696 0 0 1 181.692 20.736 Q 181.944 21.456 181.944 22.248 A 6.72 6.72 0 0 1 181.848 23.356 A 8.461 8.461 0 0 1 181.692 24.084 A 5.641 5.641 0 0 1 181.507 24.671 Q 181.397 24.961 181.264 25.193 A 2.397 2.397 0 0 1 181.008 25.56 A 3.545 3.545 0 0 1 180.059 26.308 A 4.544 4.544 0 0 1 179.496 26.568 Q 178.56 26.928 177.696 27.036 A 16.759 16.759 0 0 1 177.083 27.102 Q 176.603 27.144 176.22 27.144 L 175.536 27.144 L 161.424 27.216 Q 160.56 27.288 159.66 27.324 Q 158.76 27.36 157.896 27.252 A 6 6 0 0 1 156.371 26.86 A 5.623 5.623 0 0 1 156.276 26.82 A 5.173 5.173 0 0 1 154.877 25.924 A 6.108 6.108 0 0 1 154.872 25.92 Q 154.164 25.212 153.743 24.532 A 5.347 5.347 0 0 1 153.648 24.372 A 3.255 3.255 0 0 1 153.258 23.213 A 4.209 4.209 0 0 1 153.216 22.608 A 4.592 4.592 0 0 1 153.629 20.727 A 5.726 5.726 0 0 1 153.9 20.196 A 3.705 3.705 0 0 1 154.81 19.123 A 3.444 3.444 0 0 1 155.808 18.576 A 7.446 7.446 0 0 1 158.77 17.962 A 7.662 7.662 0 0 1 158.94 17.964 Q 160.56 18 162.216 17.928 Z M 196.632 22.752 L 206.496 22.752 Q 207.792 22.752 208.98 22.284 Q 210.168 21.816 211.14 21.024 Q 212.112 20.232 212.76 19.188 Q 213.408 18.144 213.48 16.92 Q 213.768 13.32 211.608 11.556 A 8.038 8.038 0 0 0 208.654 10.058 Q 207.526 9.742 206.197 9.662 A 14.57 14.57 0 0 0 205.92 9.648 Q 203.832 9.504 201.348 9.504 L 196.632 9.504 Q 196.704 12.456 196.668 15.516 A 464.436 464.436 0 0 0 196.646 17.968 Q 196.639 19.055 196.636 20.251 A 852.067 852.067 0 0 0 196.632 22.752 Z M 238.248 29.664 Q 237.24 30.672 236.664 32.04 Q 236.088 33.408 235.98 34.92 A 9.792 9.792 0 0 0 235.955 35.618 A 10.012 10.012 0 0 0 236.232 37.944 A 8.38 8.38 0 0 0 236.851 39.693 A 7.197 7.197 0 0 0 237.384 40.608 Q 238.104 41.616 239.832 42.3 Q 241.56 42.984 243.432 43.128 Q 245.592 43.272 247.212 41.976 Q 248.832 40.68 249.66 38.7 Q 250.488 36.72 250.416 34.452 Q 250.344 32.184 249.192 30.312 Q 248.328 28.944 246.924 28.296 Q 245.52 27.648 243.936 27.612 A 8.708 8.708 0 0 0 243.738 27.61 A 8.853 8.853 0 0 0 240.804 28.116 A 7.41 7.41 0 0 0 239.322 28.816 A 5.987 5.987 0 0 0 238.248 29.664 Z M 102.384 51.552 Q 102.384 53.424 101.052 54.756 A 4.364 4.364 0 0 1 97.906 56.088 A 5.227 5.227 0 0 1 97.848 56.088 Q 95.976 56.088 94.644 54.756 A 4.364 4.364 0 0 1 93.312 51.61 A 5.227 5.227 0 0 1 93.312 51.552 Q 93.312 49.68 94.644 48.312 A 4.467 4.467 0 0 1 96.288 47.215 A 4.424 4.424 0 0 1 97.848 46.944 A 4.3 4.3 0 0 1 100.989 48.249 A 5.379 5.379 0 0 1 101.052 48.312 Q 102.384 49.68 102.384 51.552 Z" vector-effect="non-scaling-stroke"/></g></svg>